<svg width="0" height="0" class="hidden">
  <symbol xmlns="http://www.w3.org/2000/svg" xmlns:xlink="http://www.w3.org/1999/xlink" viewBox="0 0 406 331" id="illustration-editor-mobile">
    <defs>
      <linearGradient x1="0%" y1="27.846%" x2="100%" y2="72.154%" id="c">
        <stop stop-color="#FF8F71" offset="0%"></stop>
        <stop stop-color="#FF3E55" offset="100%"></stop>
      </linearGradient>
      <linearGradient x1="0%" y1="41.623%" x2="100%" y2="58.377%" id="e">
        <stop stop-color="#FF8F71" offset="0%"></stop>
        <stop stop-color="#FF3E55" offset="100%"></stop>
      </linearGradient>
      <filter x="-21.5%" y="-23%" width="142.9%" height="164.5%" filterUnits="objectBoundingBox" id="b">
        <feOffset dy="20" in="SourceAlpha" result="shadowOffsetOuter1"></feOffset>
        <feGaussianBlur stdDeviation="20" in="shadowOffsetOuter1" result="shadowBlurOuter1"></feGaussianBlur>
        <feColorMatrix values="0 0 0 0 0.421821759 0 0 0 0 0.554338424 0 0 0 0 0.893710371 0 0 0 0.243444056 0" in="shadowBlurOuter1"></feColorMatrix>
      </filter>
      <rect id="a" x="0" y="0" width="326" height="217" rx="5"></rect>
    </defs>
    <g fill="none" fill-rule="evenodd">
      <g transform="translate(40)">
        <rect fill="#2D2E40" opacity=".08" transform="matrix(1 0 0 -1 0 329)" x="52" y="53" width="223" height="223" rx="111.5"></rect>
        <rect stroke="#2D2E40" opacity=".5" transform="matrix(1 0 0 -1 0 326)" x="37.5" y="37.5" width="251" height="251" rx="125.5"></rect>
        <rect stroke="#2D2E40" opacity=".25" transform="matrix(1 0 0 -1 0 326)" x=".5" y=".5" width="325" height="325" rx="162.5"></rect>
      </g>
      <g transform="translate(40 54)">
        <mask id="d" fill="#fff">
          <use xlink:href="#a"></use>
        </mask>
        <g fill-rule="nonzero">
          <use fill="#000" filter="url(#b)" xlink:href="#a"></use>
          <use fill="url(#c)" xlink:href="#a"></use>
        </g>
        <path d="M3 63.525h320a3 3 0 013 3V214a3 3 0 01-3 3H3a3 3 0 01-3-3V66.525a3 3 0 013-3z" fill="#2D2E40" fill-rule="nonzero" mask="url(#d)"></path>
        <rect fill="#FFF" fill-rule="nonzero" mask="url(#d)" x="45.967" y="24.246" width="68.95" height="69.707" rx="3"></rect>
        <ellipse fill="#2D2E40" mask="url(#d)" cx="80.442" cy="59.402" rx="19.959" ry="20.003"></ellipse>
        <rect fill="#FFF" fill-rule="nonzero" mask="url(#d)" x="126.408" y="24.246" width="153.625" height="165.478" rx="3"></rect>
      </g>
      <path d="M106 144c23.871-37.394 41.526-57.6 52.964-60.62 17.158-4.53 12.04 42.374 36.744 36.938 24.705-5.436 27.717-52.994 46.403-55.234 18.685-2.241 28.57 41.257 36.733 45.264 5.441 2.672 12.16-3.105 20.156-17.332" stroke="url(#e)" stroke-width="8" stroke-linecap="round" transform="translate(40 54)"></path>
    </g>
  </symbol>
  <symbol xmlns="http://www.w3.org/2000/svg" viewBox="0 0 101 40" id="logo">
    <path d="M0 30.803V1.486h10.653c1.982 0 3.695.31 5.14.93 1.446.619 2.56 1.5 3.345 2.642.785 1.142 1.177 2.484 1.177 4.026 0 1.404-.303 2.636-.909 3.695a6.48 6.48 0 01-2.56 2.498c1.487.578 2.643 1.494 3.469 2.746.826 1.253 1.239 2.732 1.239 4.439 0 1.707-.44 3.18-1.322 4.418-.88 1.239-2.12 2.202-3.716 2.89-1.596.688-3.482 1.033-5.657 1.033H0zM5.946 6.565v6.73h4.046c1.35 0 2.388-.282 3.118-.846.73-.564 1.094-1.397 1.094-2.498 0-1.101-.365-1.94-1.094-2.519-.73-.578-1.769-.867-3.118-.867H5.946zm0 19.159h4.624c1.542 0 2.732-.33 3.572-.991.84-.66 1.26-1.61 1.26-2.85 0-1.238-.42-2.188-1.26-2.848-.84-.66-2.03-.991-3.572-.991H5.946v7.68zm19.282 5.079V0h5.781v30.803h-5.78zm20.893.619c-1.624 0-3.124-.29-4.5-.867a10.94 10.94 0 01-3.593-2.416 10.96 10.96 0 01-2.374-3.654c-.564-1.404-.846-2.931-.846-4.583 0-1.652.289-3.173.867-4.563a11.354 11.354 0 012.415-3.654 10.96 10.96 0 013.634-2.436c1.39-.578 2.91-.867 4.562-.867 1.625 0 3.125.289 4.501.867a10.94 10.94 0 013.592 2.416 11.01 11.01 0 012.375 3.633c.564 1.39.846 2.911.846 4.563 0 1.651-.289 3.179-.867 4.583a11.297 11.297 0 01-2.416 3.675 10.96 10.96 0 01-3.633 2.436c-1.39.578-2.911.867-4.563.867zm.083-5.203c1.046 0 1.982-.275 2.808-.825.825-.551 1.48-1.301 1.96-2.25.483-.95.723-2.03.723-3.242 0-1.211-.24-2.292-.722-3.241-.482-.95-1.136-1.7-1.961-2.25-.826-.551-1.762-.826-2.808-.826-1.046 0-1.982.275-2.808.825-.826.55-1.48 1.301-1.961 2.25-.482.95-.723 2.03-.723 3.242 0 1.211.241 2.292.723 3.241.482.95 1.135 1.7 1.961 2.25.826.551 1.762.826 2.808.826zm24.155 3.964a9.13 9.13 0 01-3.86-.826 9.492 9.492 0 01-3.118-2.291c-.881-.977-1.57-2.12-2.065-3.427-.495-1.308-.743-2.719-.743-4.233 0-1.569.255-3.02.764-4.356a10.614 10.614 0 012.147-3.489 10.174 10.174 0 013.22-2.333c1.225-.564 2.554-.846 3.985-.846 1.404 0 2.67.282 3.799.846a7.402 7.402 0 012.807 2.457l.124-2.684h5.327v19.2c0 1.68-.269 3.207-.805 4.584-.537 1.376-1.301 2.56-2.292 3.55a10.231 10.231 0 01-3.53 2.292c-1.363.537-2.87.805-4.522.805-1.624 0-3.083-.254-4.376-.764a10.468 10.468 0 01-3.386-2.126 10.035 10.035 0 01-2.271-3.18L67.097 32a5.452 5.452 0 001.92 1.879c.784.454 1.672.681 2.663.681 1.074 0 2.003-.24 2.787-.723.785-.481 1.397-1.156 1.838-2.023.44-.867.66-1.879.66-3.035v-1.775a7.793 7.793 0 01-2.828 2.333c-1.143.564-2.402.846-3.778.846zm1.404-5.12c1.018 0 1.92-.254 2.704-.764a5.556 5.556 0 001.879-2.064c.468-.867.702-1.851.702-2.952 0-1.102-.234-2.086-.702-2.953a5.556 5.556 0 00-1.879-2.064c-.784-.51-1.686-.764-2.704-.764-1.019 0-1.92.255-2.705.764a5.556 5.556 0 00-1.879 2.064c-.468.867-.702 1.851-.702 2.953 0 1.1.234 2.085.702 2.952a5.556 5.556 0 001.88 2.064c.784.51 1.685.764 2.704.764zm15.607 5.74V9h5.327l.206 3.304c.55-1.157 1.294-2.044 2.23-2.664.936-.62 2.037-.929 3.303-.929.386 0 .77.035 1.156.103.386.07.73.159 1.033.269l-.62 5.698a4.361 4.361 0 00-.929-.227 7.495 7.495 0 00-.97-.062c-1.597 0-2.822.489-3.675 1.466-.853.977-1.28 2.36-1.28 4.15v10.694h-5.78z" fill="#FFF" fill-rule="nonzero"></path>
  </symbol>
  <symbol xmlns="http://www.w3.org/2000/svg" viewBox="0 0 1014 1018" id="bg-pattern-circles">
    <g transform="matrix(1 0 0 -1 0 1018)" fill="none" fill-rule="evenodd">
      <rect fill="#3E4062" x="213" y="214" width="588" height="590" rx="294"></rect>
      <rect stroke="#878D92" opacity=".5" x=".5" y=".5" width="1013" height="1017" rx="506.5"></rect>
      <rect stroke="#878D92" x="170.5" y="171.5" width="673" height="675" rx="336.5"></rect>
    </g>
  </symbol>
  <symbol xmlns="http://www.w3.org/2000/svg" viewBox="0 0 3175 3174" id="bg-pattern-intro-desktop">
    <defs>
      <linearGradient id="a" x1=".639%" x2="99.361%" y1="0%" y2="100%">
        <stop offset="0%" stop-color="#FF8F71"></stop>
        <stop offset="100%" stop-color="#FF3E55"></stop>
      </linearGradient>
    </defs>
    <path fill="url(#a)" fill-rule="evenodd" d="M1973.15 1193.185v788.41h-786.766v-688.41c0-55.228 44.772-100 100-100h686.767zm-1310.445-1.171c217.26 0 393.383 176.124 393.383 393.383v1.645c0 217.26-176.123 393.383-393.383 393.383S269.322 1804.3 269.322 1587.042v-1.645c0-217.26 176.124-393.383 393.383-393.383zm392.212-926.418v688.41c0 55.23-44.771 100-100 100H268.151v-788.41h786.766zm918.234 0v788.41h-686.767c-55.228 0-100-44.771-100-100v-688.41h786.767z" transform="rotate(22 162.072 2556.164)"></path>
  </symbol>
  <symbol xmlns="http://www.w3.org/2000/svg" viewBox="0 0 1324 1323" id="bg-pattern-intro-mobile">
    <defs>
      <linearGradient x1=".695%" y1="0%" x2="99.305%" y2="100%" id="a">
        <stop stop-color="#FF8F71" offset="0%"></stop>
        <stop stop-color="#FF3E55" offset="100%"></stop>
      </linearGradient>
    </defs>
    <path d="M821.895188,497.739327 L821.895188,825.739327 L493.895188,825.739327 L493.895188,597.739327 C493.895188,542.510852 538.666713,497.739327 593.895188,497.739327 L821.895188,497.739327 Z M276.655938,496.460979 C367.230637,496.460979 440.655938,569.88628 440.655938,660.460979 C440.655938,751.035678 367.230637,824.460979 276.655938,824.460979 C186.081239,824.460979 112.655938,751.035678 112.655938,660.460979 C112.655938,569.88628 186.081239,496.460979 276.655938,496.460979 Z M822.227687,111.489551 L822.227687,439.489551 L594.227687,439.489551 C538.999212,439.489551 494.227687,394.718026 494.227687,339.489551 L494.227687,339.489551 L494.227687,111.489551 L822.227687,111.489551 Z M440.061253,110.58581 L440.061253,338.58581 C440.061253,393.814285 395.289728,438.58581 340.061253,438.58581 L112.061253,438.58581 L112.061253,110.58581 L440.061253,110.58581 Z" transform="rotate(22 67.652 1066.199)" fill="url(#a)" fill-rule="evenodd"></path>
  </symbol>
  <symbol xmlns="http://www.w3.org/2000/svg" viewBox="0 0 10 7" id="icon-arrow-dark">
    <path fill="none" stroke="#FF7B86" stroke-width="2" d="M1 1l4 4 4-4"></path>
  </symbol>
  <symbol xmlns="http://www.w3.org/2000/svg" viewBox="0 0 10 7" id="icon-arrow-light">
    <path fill="none" stroke="#FFF" stroke-width="2" opacity=".75" d="M1 1l4 4 4-4"></path>
  </symbol>
  <symbol xmlns="http://www.w3.org/2000/svg" viewBox="0 0 26 26" id="icon-close">
    <path d="M23.607.98l1.414 1.413L14.414 13l10.607 10.607-1.414 1.414L13 14.414 2.393 25.021.98 23.607 11.586 13 .98 2.393 2.393.98 13 11.586 23.607.98z" fill="#FFF" fill-rule="evenodd"></path>
  </symbol>
  <symbol xmlns="http://www.w3.org/2000/svg" viewBox="0 0 32 18" id="icon-hamburger">
    <g fill="#FFF" fill-rule="evenodd">
      <path d="M0 0h32v2H0zM0 8h32v2H0zM0 16h32v2H0z"></path>
    </g>
  </symbol>
  <symbol xmlns="http://www.w3.org/2000/svg" xmlns:xlink="http://www.w3.org/1999/xlink" viewBox="0 0 925 882" id="illustration-editor-desktop">
    <defs>
      <linearGradient x1="0%" y1="27.881%" x2="100%" y2="72.119%" id="c">
        <stop stop-color="#FF8F71" offset="0%"></stop>
        <stop stop-color="#FF3E55" offset="100%"></stop>
      </linearGradient>
      <linearGradient x1="0%" y1="41.725%" x2="100%" y2="58.275%" id="e">
        <stop stop-color="#FF8F71" offset="0%"></stop>
        <stop stop-color="#FF3E55" offset="100%"></stop>
      </linearGradient>
      <filter x="-10.9%" y="-11.7%" width="121.8%" height="132.8%" filterUnits="objectBoundingBox" id="b">
        <feOffset dy="20" in="SourceAlpha" result="shadowOffsetOuter1"></feOffset>
        <feGaussianBlur stdDeviation="20" in="shadowOffsetOuter1" result="shadowBlurOuter1"></feGaussianBlur>
        <feColorMatrix values="0 0 0 0 0.421821759 0 0 0 0 0.554338424 0 0 0 0 0.893710371 0 0 0 0.243444056 0" in="shadowBlurOuter1"></feColorMatrix>
      </filter>
      <rect id="a" x="0" y="0" width="642" height="427" rx="15"></rect>
    </defs>
    <g transform="translate(40)" fill="none" fill-rule="evenodd">
      <rect fill="#2D2E40" opacity=".08" transform="matrix(1 0 0 -1 0 890)" x="145" y="144" width="600" height="602" rx="300"></rect>
      <rect stroke="#2D2E40" opacity=".5" transform="matrix(1 0 0 -1 0 882)" x="105.5" y="100.5" width="679" height="681" rx="339.5"></rect>
      <rect stroke="#2D2E40" opacity=".25" transform="matrix(1 0 0 -1 0 882)" x="5.5" y=".5" width="879" height="881" rx="439.5"></rect>
      <g transform="translate(0 242)">
        <mask id="d" fill="#fff">
          <use xlink:href="#a"></use>
        </mask>
        <g fill-rule="nonzero">
          <use fill="#000" filter="url(#b)" xlink:href="#a"></use>
          <use fill="url(#c)" xlink:href="#a"></use>
        </g>
        <path d="M3 125h636a3 3 0 013 3v296a3 3 0 01-3 3H3a3 3 0 01-3-3V128a3 3 0 013-3z" fill="#2D2E40" fill-rule="nonzero" mask="url(#d)"></path>
        <rect fill="#FFF" fill-rule="nonzero" mask="url(#d)" x="90.523" y="47.709" width="135.785" height="137.165" rx="3"></rect>
        <ellipse fill="#2D2E40" mask="url(#d)" cx="158.416" cy="116.888" rx="39.306" ry="39.36"></ellipse>
        <rect fill="#FFF" fill-rule="nonzero" mask="url(#d)" x="248.939" y="47.709" width="302.538" height="325.617" rx="3"></rect>
      </g>
      <path d="M209 284c47.125-73.367 81.977-113.013 104.557-118.938 33.87-8.886 23.765 83.14 72.535 72.473 48.77-10.666 54.716-103.974 91.603-108.37 36.887-4.397 56.402 80.946 72.515 88.81 10.742 5.241 24.005-6.094 39.79-34.007" stroke="url(#e)" stroke-width="8" stroke-linecap="round" transform="translate(0 242)"></path>
    </g>
  </symbol>
</svg>